<svg width="30" height="34" viewBox="0 0 30 34" fill="none" xmlns="http://www.w3.org/2000/svg">
<path d="M29.3841 2.54006C29.3708 2.51355 29.3398 2.49587 29.3088 2.50471C29.0385 2.61961 28.7683 2.71683 28.4892 2.81847C27.7227 3.1013 26.9252 3.28691 26.1278 3.47251C25.2151 3.6758 24.2847 3.82163 23.3765 4.04701C22.5923 4.23703 21.8126 4.46683 21.0594 4.76734C20.4923 4.9883 19.9341 5.22693 19.4113 5.53186C18.7911 5.87214 18.2904 6.38034 17.8031 6.88413C17.3556 7.35256 16.9037 7.821 16.5094 8.33804C16.2879 8.62971 16.1018 8.94789 15.9246 9.26608C16.2037 8.21431 16.5936 7.1537 17.3069 6.31405C17.3601 6.24777 17.298 6.16822 17.2227 6.20358C17.0411 6.29196 16.8727 6.40686 16.6999 6.51292C15.3797 7.4056 14.2012 8.51481 13.1866 9.73893C12.6904 10.3444 12.212 10.963 11.8176 11.6392C11.3613 12.4302 11.0158 13.2831 10.7676 14.1625C10.7411 13.6411 10.7854 13.1196 10.8563 12.6026C10.8695 12.5098 10.8828 12.4214 10.8873 12.3286C10.8873 12.2667 10.905 12.1783 10.843 12.143C10.7987 12.1209 10.7544 12.143 10.7233 12.1783C10.6835 12.2181 10.6525 12.2623 10.617 12.3065C10.5461 12.3993 10.4752 12.4965 10.4088 12.5937C10.1873 12.9075 9.9879 13.2389 9.81512 13.5836C9.3898 14.4542 8.99993 15.3336 8.60562 16.2175C8.20689 17.1013 7.83917 18.0028 7.45373 18.8911C7.086 19.7307 6.68284 20.5571 6.26638 21.3747C6.04043 21.8122 5.81005 22.2497 5.5398 22.6651C5.42461 22.8418 5.30499 23.0142 5.18094 23.1821C5.19866 23.1468 5.21638 23.1158 5.23411 23.0805C5.5974 22.369 5.8455 21.6089 6.07145 20.8444C6.25752 20.3538 6.4436 19.8633 6.65183 19.386C6.8955 18.8425 7.11259 18.2901 7.32081 17.7332C7.73727 16.6815 8.24233 15.6739 8.81828 14.6973C9.19043 14.0653 9.58917 13.4466 9.95246 12.8058C10.2936 12.2048 10.5639 11.5685 10.874 10.9542C11.1044 10.4946 11.3392 10.035 11.5385 9.56216C11.5961 9.42958 11.6537 9.29259 11.7069 9.15559C11.729 9.08931 11.7556 9.0186 11.7689 8.94789C11.7689 8.92138 11.7733 8.89044 11.7556 8.86393C11.7158 8.80206 11.636 8.82416 11.5873 8.86393C11.4455 8.96999 11.3126 9.08047 11.1752 9.19537C10.7322 9.571 10.2714 9.92453 9.7974 10.2604C10.812 9.03186 11.893 7.77681 12.3803 6.23009C12.4158 6.09751 12.5132 5.76607 12.4158 5.65559C12.3493 5.59815 12.274 5.67769 12.2341 5.7263C11.8221 6.23893 11.3879 6.73388 10.905 7.18022C11.0911 6.88855 11.2683 6.58804 11.4278 6.2787C11.6936 5.7484 11.955 5.21368 12.1721 4.66128C12.429 3.98514 12.624 3.29133 12.8278 2.60193C13.036 1.85067 13.2221 1.09057 13.448 0.343726C13.4702 0.273019 13.4923 0.202312 13.5056 0.127186C13.5056 0.10509 13.5145 0.0785749 13.5056 0.056479C13.4923 0.0167063 13.4436 -0.00980889 13.4037 0.00344869C13.3683 0.0122871 13.3328 0.034383 13.3018 0.0608982C12.8499 0.485141 12.4468 0.957994 12.0126 1.39549C11.6936 1.72251 11.3702 2.05395 11.0645 2.39423C10.4487 3.09246 9.8993 3.85257 9.46512 4.67453C9.07082 5.42138 8.78284 6.23009 8.60562 7.05648C8.36638 8.13476 8.28664 9.23956 8.136 10.3311C7.96322 9.85825 7.86132 9.35888 7.83917 8.85067C7.83031 8.68274 7.82145 8.50597 7.81259 8.32479C7.81259 8.24082 7.81259 8.05964 7.68411 8.09941C7.64423 8.1215 7.62208 8.1657 7.59993 8.20989C7.56005 8.28943 7.52461 8.3734 7.48917 8.45736C7.37841 8.71368 7.25436 8.96115 7.13917 9.21304C6.81132 9.92011 6.52778 10.6537 6.38157 11.4182C6.25309 12.0457 6.18664 12.6865 6.18664 13.3229C6.18664 14.2156 6.32398 15.095 6.31955 15.9921C6.07588 15.5988 5.82778 15.201 5.72588 14.7415C5.67271 14.5249 5.63284 14.3084 5.5974 14.0918C5.58854 14.03 5.57524 13.9637 5.56638 13.9018C5.55752 13.8576 5.55752 13.8002 5.52208 13.7692C5.44233 13.7074 5.38917 13.8134 5.37145 13.8797C5.22081 14.357 5.1455 14.8608 5.12778 15.3646C5.10562 15.8728 5.15436 16.381 5.20309 16.8892C5.2474 17.3488 5.29613 17.8084 5.32714 18.2724C5.30499 18.4403 5.29613 18.6082 5.28284 18.7762C5.22968 19.6026 5.13664 20.429 4.97714 21.2421C4.87081 21.8961 4.73347 22.5413 4.50309 23.1689C4.37018 23.6152 4.1974 24.0483 3.98031 24.4593C3.94487 24.5167 3.91385 24.5786 3.88284 24.636C3.45309 25.4005 3.05879 26.1827 2.62461 26.9428C2.36322 27.3892 2.11069 27.8444 1.87588 28.3084C1.70309 28.6089 1.5436 28.9138 1.40626 29.2276C1.28664 29.4927 1.17145 29.7623 1.06512 30.0319C1.02524 30.1468 0.910055 30.3766 0.97208 30.4915C1.06512 30.5754 1.14043 30.4649 1.19803 30.3456C1.21132 30.3324 1.22461 30.3191 1.23347 30.3058C1.26892 30.2572 1.29993 30.2086 1.32651 30.1556C1.3974 30.0363 1.46828 29.9214 1.53474 29.8065C1.82714 29.2983 2.11069 28.7856 2.39866 28.273C2.82841 27.4776 3.29803 26.7042 3.77208 25.9308C3.85183 25.8027 3.92714 25.6745 4.00689 25.542C4.10436 25.4005 4.20183 25.2635 4.30373 25.1221C4.48537 24.8747 4.68031 24.636 4.89297 24.4151C5.15436 24.1278 5.48221 23.8494 5.7879 23.6064C6.23094 23.2484 6.62968 22.8418 7.01955 22.4308C7.92778 21.4454 8.78284 20.4113 9.66892 19.4037C10.2582 18.6966 10.8917 18.0161 11.5695 17.3974C12.0702 16.9776 12.5885 16.5754 13.1158 16.1909C13.9575 15.5899 14.8436 15.0552 15.6809 14.4454C16.6689 13.725 17.6347 12.9738 18.5208 12.1297C18.5474 12.0988 18.5784 12.0634 18.5607 12.0192C18.543 11.9618 18.4721 11.9706 18.4233 11.9839C18.224 12.0369 18.0335 12.1165 17.8385 12.1651C17.6392 12.2093 17.4354 12.249 17.236 12.2844C16.6911 12.3904 16.1328 12.4346 15.579 12.4391C15.8936 12.3197 16.2126 12.2048 16.5316 12.0988C17.3246 11.8601 18.1265 11.6569 18.9018 11.3652C20.2797 10.8923 21.4847 10.0439 22.5879 9.1114C22.8582 8.88602 23.1328 8.66065 23.3809 8.40875C23.4252 8.35572 23.4917 8.30711 23.5006 8.23198C23.5006 8.1436 23.3942 8.1436 23.3278 8.16128C22.7075 8.29385 22.0828 8.42201 21.4537 8.4883C21.0373 8.52807 20.6031 8.559 20.1866 8.48388C20.6695 8.33804 21.1569 8.20989 21.6531 8.10825C22.1139 8.01544 22.579 7.92706 23.0265 7.79006C23.7221 7.58678 24.3468 7.18905 24.8784 6.70294C25.1974 6.39802 25.4942 6.071 25.7866 5.73956C26.0968 5.38602 26.3759 5.00597 26.7037 4.6657C27.1335 4.21494 27.6031 3.80395 28.1037 3.43716C28.4759 3.14549 28.8746 2.89802 29.2866 2.6638C29.3176 2.64613 29.3487 2.63729 29.3797 2.61961C29.4063 2.60193 29.4151 2.571 29.4018 2.54006H29.3841ZM5.17208 23.5356C5.17208 23.5356 5.17208 23.5356 5.16322 23.5356H5.16765H5.17208ZM6.23094 18.785C6.57208 17.6714 6.89993 16.5533 7.25436 15.4441C7.58664 14.3084 7.91892 13.1726 8.26892 12.0457C8.65879 10.7112 8.96892 9.35446 9.38094 8.02428C9.67335 7.08741 10.0012 6.15938 10.3689 5.24903C10.7012 4.42706 11.0733 3.61835 11.5784 2.88476C11.1664 3.8614 10.7411 4.82921 10.3822 5.82352C10.0366 6.69411 9.74423 7.58236 9.4917 8.48388C8.87588 10.4769 8.50373 12.5363 7.91006 14.5338C7.65752 15.4176 7.37398 16.2926 7.06828 17.1632C6.85119 17.7863 6.59423 18.4094 6.38157 19.0325C5.90752 20.4157 5.46892 21.8122 4.92841 23.1733C4.91955 23.1821 4.91069 23.1909 4.90183 23.1998C4.88411 23.1954 4.86638 23.1998 4.85309 23.2042C4.94613 22.9125 5.03474 22.6165 5.11005 22.3204C5.46892 21.136 5.86322 19.9649 6.23094 18.785ZM19.5487 7.92264C19.0347 8.27618 18.5208 8.62971 18.0335 9.01418C17.2227 9.65938 16.4341 10.3267 15.6499 11.0028C15.1936 11.4094 14.7816 11.8646 14.3518 12.3021C13.9265 12.744 13.4968 13.1771 13.0936 13.6367C12.5575 14.2332 12.0082 14.821 11.4942 15.4397C11.0423 15.97 10.6303 16.5356 10.2227 17.1013C9.92145 17.5034 9.61575 17.9056 9.33221 18.321C8.9955 18.8027 8.6455 19.2711 8.30879 19.7528C7.97208 20.2389 7.6398 20.725 7.31195 21.2156C7.10373 21.5249 6.8955 21.8387 6.65183 22.1259C6.36385 22.4662 6.06702 22.8242 5.73917 23.1379C5.61512 23.2484 5.4955 23.3589 5.37588 23.4738C5.37588 23.4738 5.37588 23.4738 5.37145 23.4738C5.31385 23.4605 5.31385 23.4075 5.32714 23.3633C5.56195 23.1026 5.79676 22.8463 6.02714 22.5811C6.30626 22.2585 6.55879 21.9138 6.7936 21.5603C8.04297 19.7396 9.30562 17.9233 10.648 16.1644C11.1487 15.5148 11.667 14.874 12.2252 14.273C13.1866 13.2566 14.179 12.2755 15.1714 11.2856C16.4518 10.0129 17.8164 8.81974 19.3006 7.79006C20.4835 6.99461 21.7417 6.31405 23.0398 5.7263C21.8259 6.37592 20.6917 7.16696 19.5487 7.92706V7.92264Z" fill="#5534DA"/>
<path d="M20.6389 30.2837C20.6035 30.3588 20.5547 30.4251 20.5016 30.487C19.9433 31.0659 19.1193 31.3664 18.3395 31.5211C17.5509 31.6846 16.7402 31.5343 15.9693 31.362C16.7357 30.73 17.5952 29.992 17.768 28.9623C17.9364 27.7294 16.7712 26.9295 15.6503 26.8765C11.9022 26.7528 8.51739 28.7812 5.34081 30.5356C4.13574 31.194 2.79334 32.0381 1.36233 31.7067C1.16296 31.6492 0.959161 31.5211 0.897136 31.3089C0.901566 31.2515 0.874984 31.1852 0.817389 31.1587C0.374351 31.0703 0.688908 31.6934 0.892706 31.8039C2.65157 32.807 5.09714 30.9466 6.6522 30.1423C8.256 29.2673 9.91296 28.3834 11.6585 27.8134C13.1073 27.3847 14.8218 26.9074 16.3149 27.3096C17.0769 27.5305 17.6706 28.326 17.4269 29.1214C17.1212 30.0406 16.3281 30.6903 15.5883 31.2647C14.4231 30.9863 13.2136 30.6814 12.0085 30.8538C11.344 30.9731 10.5775 31.2073 10.2452 31.8437C9.72688 32.8866 11.025 33.0899 11.7781 33.0678C13.1914 33.0236 14.5383 32.4447 15.6547 31.5918C16.9218 31.9232 18.1756 32.0469 19.4117 31.5255C19.9699 31.2692 20.6035 30.9863 20.9047 30.4163C20.9978 30.2439 20.7231 30.1025 20.6345 30.2748L20.6389 30.2837ZM11.7383 32.7717C11.3307 32.7408 10.613 32.7982 10.4402 32.343C10.4136 31.7685 11.0516 31.4327 11.53 31.2868C12.7573 30.9156 14.0509 31.225 15.2649 31.5078C14.2414 32.2546 13.0142 32.7363 11.7383 32.7717Z" fill="#5534DA"/>
</svg>
