<svg width="189" height="61" viewBox="0 0 189 61" fill="none" xmlns="http://www.w3.org/2000/svg">
<g clip-path="url(#clip0_31432_13851)">
<path d="M60.9091 10.218C60.8884 10.1766 60.8399 10.1489 60.7915 10.1627C60.3694 10.3425 59.9472 10.4945 59.5113 10.6535C58.3141 11.0959 57.0684 11.3862 55.8228 11.6765C54.3973 11.9944 52.944 12.2225 51.5254 12.5751C50.3005 12.8723 49.0826 13.2317 47.9061 13.7017C47.0203 14.0473 46.1484 14.4206 45.3318 14.8975C44.363 15.4297 43.581 16.2246 42.8198 17.0126C42.1209 17.7453 41.415 18.478 40.7991 19.2867C40.4531 19.7429 40.1624 20.2405 39.8856 20.7382C40.3216 19.0931 40.9306 17.4342 42.0447 16.1209C42.1278 16.0173 42.0309 15.8928 41.9133 15.9481C41.6295 16.0864 41.3666 16.2661 41.0967 16.432C39.0345 17.8282 37.1937 19.5632 35.609 21.4778C34.8339 22.4248 34.0865 23.3924 33.4706 24.45C32.7579 25.6873 32.2181 27.0213 31.8306 28.3968C31.789 27.5812 31.8582 26.7655 31.969 25.9568C31.9897 25.8117 32.0105 25.6734 32.0174 25.5283C32.0174 25.4315 32.0451 25.2933 31.9482 25.238C31.879 25.2034 31.8098 25.238 31.7614 25.2933C31.6991 25.3555 31.6506 25.4246 31.5953 25.4937C31.4845 25.6389 31.3738 25.7909 31.27 25.943C30.924 26.4338 30.6126 26.9522 30.3427 27.4913C29.6784 28.853 29.0694 30.2285 28.4535 31.6109C27.8307 32.9933 27.2563 34.4034 26.6543 35.7927C26.0799 37.106 25.4501 38.3985 24.7997 39.6773C24.4467 40.3616 24.0869 41.0459 23.6647 41.6956C23.4848 41.9721 23.298 42.2417 23.1042 42.5043C23.1319 42.449 23.1596 42.4006 23.1872 42.3453C23.7547 41.2325 24.1422 40.0436 24.4952 38.8478C24.7858 38.0806 25.0765 37.3134 25.4017 36.5668C25.7823 35.7167 26.1214 34.8527 26.4467 33.9817C27.0971 32.3367 27.8861 30.7607 28.7857 29.2331C29.367 28.2447 29.9898 27.277 30.5572 26.2748C31.0901 25.3347 31.5122 24.3394 31.9966 23.3786C32.3565 22.6598 32.7233 21.9409 33.0347 21.2013C33.1246 20.994 33.2146 20.7797 33.2976 20.5654C33.3322 20.4617 33.3738 20.3511 33.3945 20.2405C33.3945 20.1991 33.4014 20.1507 33.3738 20.1092C33.3115 20.0124 33.1869 20.047 33.1108 20.1092C32.8893 20.2751 32.6817 20.4479 32.4672 20.6276C31.7752 21.2151 31.0555 21.7681 30.315 22.2934C31.8998 20.3719 33.5883 18.4088 34.3495 15.9896C34.4049 15.7823 34.5571 15.2639 34.4049 15.091C34.3011 15.0012 34.1834 15.1256 34.1211 15.2016C33.4776 16.0034 32.7994 16.7776 32.0451 17.4757C32.3357 17.0195 32.6125 16.5495 32.8617 16.0656C33.2769 15.2362 33.6852 14.3998 34.0243 13.5358C34.4256 12.4783 34.7301 11.3931 35.0484 10.3148C35.3737 9.13976 35.6643 7.95088 36.0173 6.78274C36.0519 6.67215 36.0865 6.56155 36.1072 6.44405C36.1072 6.40949 36.1211 6.36802 36.1072 6.33346C36.0865 6.27125 36.0103 6.22978 35.9481 6.25051C35.8927 6.26434 35.8373 6.2989 35.7889 6.34037C35.083 7.00393 34.4533 7.74352 33.7751 8.42781C33.2769 8.93931 32.7717 9.45771 32.2942 9.98994C31.3323 11.082 30.4742 12.2709 29.796 13.5566C29.1801 14.7247 28.7303 15.9896 28.4535 17.2822C28.0798 18.9687 27.9553 20.6967 27.72 22.404C27.4501 21.6644 27.2909 20.8834 27.2563 20.0885C27.2425 19.8258 27.2286 19.5493 27.2148 19.2659C27.2148 19.1346 27.2148 18.8512 27.0141 18.9134C26.9518 18.948 26.9172 19.0171 26.8826 19.0862C26.8203 19.2106 26.765 19.342 26.7096 19.4733C26.5366 19.8742 26.3428 20.2613 26.1629 20.6553C25.6508 21.7612 25.2079 22.9086 24.9796 24.1044C24.7789 25.0859 24.6751 26.0882 24.6751 27.0835C24.6751 28.4797 24.8896 29.8552 24.8827 31.2584C24.5021 30.6432 24.1146 30.0211 23.9554 29.3023C23.8723 28.9636 23.8101 28.6249 23.7547 28.2862C23.7409 28.1894 23.7201 28.0857 23.7063 27.989C23.6924 27.9199 23.6924 27.83 23.6371 27.7816C23.5125 27.6848 23.4295 27.8507 23.4018 27.9544C23.1665 28.7009 23.0488 29.4889 23.0212 30.2769C22.9866 31.0718 23.0627 31.8666 23.1388 32.6615C23.208 33.3804 23.2841 34.0992 23.3326 34.825C23.298 35.0877 23.2841 35.3503 23.2634 35.613C23.1803 36.9055 23.035 38.1981 22.7859 39.4699C22.6198 40.4929 22.4053 41.5021 22.0454 42.4836C21.8378 43.1817 21.5679 43.8591 21.2288 44.5019C21.1735 44.5918 21.125 44.6885 21.0766 44.7784C20.4053 45.9742 19.7894 47.1976 19.1113 48.3865C18.703 49.0846 18.3085 49.7966 17.9418 50.5223C17.6719 50.9923 17.4227 51.4693 17.2082 51.96C17.0214 52.3748 16.8414 52.7964 16.6754 53.218C16.6131 53.3977 16.4332 53.7572 16.53 53.9369C16.6754 54.0682 16.793 53.8954 16.883 53.7088C16.9037 53.688 16.9245 53.6673 16.9383 53.6466C16.9937 53.5705 17.0421 53.4945 17.0836 53.4116C17.1944 53.2249 17.3051 53.0452 17.4089 52.8655C17.8656 52.0706 18.3085 51.2688 18.7583 50.467C19.4296 49.2228 20.1631 48.0132 20.9036 46.8036C21.0282 46.6032 21.1458 46.4027 21.2704 46.1954C21.4226 45.9742 21.5748 45.7599 21.734 45.5387C22.0177 45.1516 22.3222 44.7784 22.6544 44.4328C23.0627 43.9835 23.5748 43.548 24.0523 43.1679C24.7443 42.608 25.3671 41.9721 25.9761 41.3293C27.3947 39.7879 28.7303 38.1704 30.1143 36.5945C31.0347 35.4886 32.0243 34.4241 33.0831 33.4564C33.8651 32.7998 34.6747 32.1708 35.4982 31.5694C36.8131 30.6294 38.1971 29.793 39.505 28.8392C41.0482 27.7125 42.5568 26.5374 43.9409 25.2172C43.9824 25.1688 44.0308 25.1136 44.0031 25.0444C43.9755 24.9546 43.8647 24.9684 43.7886 24.9891C43.4772 25.0721 43.1796 25.1965 42.8752 25.2725C42.5638 25.3416 42.2454 25.4039 41.934 25.4592C41.0828 25.625 40.2109 25.6942 39.3459 25.7011C39.8372 25.5144 40.3355 25.3347 40.8337 25.1688C42.0724 24.7956 43.325 24.4776 44.536 24.0214C46.6882 23.2819 48.5705 21.9547 50.2936 20.4963C50.7157 20.1438 51.1448 19.7913 51.5323 19.3973C51.6015 19.3143 51.7053 19.2383 51.7191 19.1208C51.7191 18.9825 51.5531 18.9825 51.4493 19.0102C50.4804 19.2176 49.5047 19.418 48.522 19.5217C47.8715 19.5839 47.1934 19.6323 46.5429 19.5148C47.2972 19.2867 48.0584 19.0862 48.8334 18.9272C49.5531 18.7821 50.2798 18.6439 50.9787 18.4296C52.0652 18.1116 53.0409 17.4895 53.8713 16.7292C54.3696 16.2523 54.8332 15.7408 55.29 15.2224C55.7744 14.6694 56.2103 14.075 56.7224 13.5427C57.3937 12.8377 58.1272 12.1949 58.9092 11.6212C59.4905 11.165 60.1133 10.7779 60.7569 10.4116C60.8053 10.3839 60.8538 10.3701 60.9022 10.3425C60.9438 10.3148 60.9576 10.2664 60.9368 10.218H60.9091ZM23.0904 43.0573C23.0904 43.0573 23.0904 43.0573 23.0765 43.0573H23.0834H23.0904ZM24.7443 35.6268C25.2771 33.885 25.7892 32.1362 26.3428 30.4013C26.8619 28.6249 27.3809 26.8485 27.9276 25.0859C28.5365 22.9985 29.021 20.8765 29.6645 18.7959C30.1213 17.3306 30.6334 15.879 31.2077 14.4551C31.7267 13.1695 32.308 11.9046 33.0969 10.7572C32.4534 12.2847 31.789 13.7985 31.2285 15.3537C30.6887 16.7154 30.232 18.1047 29.8375 19.5148C28.8756 22.6321 28.2943 25.8531 27.367 28.9774C26.9726 30.3598 26.5297 31.7284 26.0522 33.0901C25.7131 34.0647 25.3117 35.0393 24.9796 36.0139C24.2391 38.1774 23.554 40.3616 22.7098 42.4905C22.6959 42.5043 22.6821 42.5181 22.6682 42.532C22.6406 42.5251 22.6129 42.532 22.5921 42.5389C22.7374 42.0827 22.8758 41.6196 22.9935 41.1565C23.554 39.304 24.1699 37.4723 24.7443 35.6268ZM45.5464 18.6369C44.7436 19.1899 43.9409 19.7429 43.1796 20.3442C41.9133 21.3534 40.6815 22.3971 39.4566 23.4547C38.7438 24.0906 38.1002 24.8025 37.429 25.4868C36.7646 26.178 36.0934 26.8554 35.4636 27.5742C34.6263 28.5074 33.7682 29.4267 32.9655 30.3944C32.2596 31.2238 31.616 32.1086 30.9794 32.9933C30.5088 33.6223 30.0313 34.2513 29.5884 34.901C29.0625 35.6545 28.5158 36.3871 27.9899 37.1406C27.4639 37.9009 26.9449 38.6612 26.4328 39.4284C26.1076 39.9123 25.7823 40.403 25.4017 40.8523C24.9519 41.3846 24.4882 41.9444 23.9761 42.4352C23.7824 42.608 23.5955 42.7808 23.4087 42.9605C23.4087 42.9605 23.4087 42.9605 23.4018 42.9605C23.3118 42.9398 23.3118 42.8568 23.3326 42.7877C23.6993 42.3799 24.0661 41.979 24.426 41.5643C24.8619 41.0597 25.2564 40.5206 25.6232 39.9676C27.5746 37.1198 29.5469 34.279 31.6437 31.528C32.4257 30.5119 33.2353 29.5096 34.1073 28.5696C35.609 26.9798 37.1591 25.4453 38.7092 23.897C40.7091 21.9063 42.8406 20.0401 45.1588 18.4296C47.0065 17.1854 48.9718 16.1209 50.9995 15.2016C49.1033 16.2177 47.3318 17.455 45.5464 18.6439V18.6369Z" fill="#FAFAFA"/>
<path d="M47.2492 53.6121C47.1939 53.7296 47.1177 53.8332 47.0347 53.93C46.1628 54.8355 44.8756 55.3055 43.6577 55.5474C42.4259 55.8032 41.1595 55.5682 39.9554 55.2986C41.1526 54.3102 42.4951 53.1559 42.765 51.5453C43.0279 49.6169 41.2079 48.3658 39.4571 48.2829C33.6026 48.0893 28.3156 51.262 23.3538 54.006C21.4716 55.0359 19.3747 56.3562 17.1395 55.8377C16.8281 55.7479 16.5098 55.5474 16.4129 55.2157C16.4198 55.1258 16.3783 55.0221 16.2883 54.9806C15.5963 54.8424 16.0877 55.817 16.406 55.9898C19.1533 57.5589 22.9732 54.6489 25.4022 53.3909C27.9073 52.0223 30.4955 50.6399 33.222 49.7482C35.4849 49.0777 38.163 48.3312 40.4951 48.9602C41.6854 49.3058 42.6127 50.55 42.2321 51.7942C41.7546 53.2319 40.5159 54.248 39.3602 55.1465C37.5402 54.7111 35.651 54.2341 33.7687 54.5037C32.7307 54.6903 31.5335 55.0567 31.0145 56.052C30.2048 57.6833 32.2324 58.0012 33.4089 57.9667C35.6164 57.8975 37.7201 56.9921 39.464 55.658C41.4432 56.1764 43.4016 56.37 45.3323 55.5544C46.2043 55.1535 47.1939 54.7111 47.6644 53.8194C47.8098 53.5498 47.3807 53.3287 47.2423 53.5982L47.2492 53.6121ZM33.3466 57.5036C32.7099 57.4552 31.5889 57.545 31.319 56.8331C31.2775 55.9345 32.274 55.4092 33.0213 55.1811C34.9382 54.6005 36.9589 55.0843 38.8551 55.5267C37.2565 56.6948 35.3396 57.4483 33.3466 57.5036Z" fill="#FAFAFA"/>
</g>
<path d="M68.7744 46.1516V26.3892H60.917V21.7965H82.3145V26.3892H74.4571V46.1516H68.7744Z" fill="white"/>
<path d="M94.8055 46.1516V42.4983L94.4548 41.6981V35.157C94.4548 33.9973 94.0923 33.0926 93.3673 32.4432C92.6658 31.7937 91.5784 31.469 90.1051 31.469C89.0995 31.469 88.1057 31.6313 87.1235 31.9561C86.1647 32.2576 85.3462 32.6751 84.668 33.2086L82.7036 29.4162C83.7326 28.6971 84.972 28.1404 86.4219 27.7461C87.8718 27.3518 89.3451 27.1546 90.8417 27.1546C93.7181 27.1546 95.9514 27.8273 97.5416 29.1726C99.1318 30.518 99.9269 32.6171 99.9269 35.4702V46.1516H94.8055ZM89.0528 46.4299C87.5795 46.4299 86.3167 46.1864 85.2643 45.6993C84.212 45.189 83.4052 44.5047 82.844 43.6465C82.2827 42.7883 82.0021 41.8257 82.0021 40.7587C82.0021 39.6453 82.271 38.6711 82.8089 37.8361C83.3701 37.0011 84.2471 36.3516 85.4397 35.8877C86.6324 35.4006 88.1875 35.157 90.1051 35.157H95.1212V38.3232H90.7014C89.4152 38.3232 88.5266 38.5319 88.0355 38.9495C87.5678 39.367 87.3339 39.8889 87.3339 40.5151C87.3339 41.211 87.6029 41.7677 88.1407 42.1852C88.702 42.5795 89.462 42.7767 90.4208 42.7767C91.3328 42.7767 92.1513 42.5679 92.8763 42.1504C93.6012 41.7097 94.1274 41.0718 94.4548 40.2368L95.2966 42.7419C94.8991 43.948 94.1741 44.8643 93.1218 45.4905C92.0695 46.1168 90.7131 46.4299 89.0528 46.4299Z" fill="white"/>
<path d="M110.431 46.4299C108.818 46.4299 107.263 46.2444 105.766 45.8733C104.293 45.4789 103.123 44.9918 102.258 44.412L104.082 40.5151C104.948 41.0486 105.965 41.4893 107.134 41.8373C108.327 42.162 109.496 42.3244 110.642 42.3244C111.905 42.3244 112.793 42.1736 113.308 41.8721C113.846 41.5705 114.115 41.153 114.115 40.6195C114.115 40.1788 113.904 39.8541 113.483 39.6453C113.086 39.4134 112.548 39.2394 111.87 39.1234C111.191 39.0074 110.443 38.8915 109.625 38.7755C108.829 38.6595 108.023 38.5087 107.204 38.3232C106.386 38.1144 105.637 37.8129 104.959 37.4186C104.281 37.0242 103.731 36.4908 103.311 35.8181C102.913 35.1454 102.714 34.2756 102.714 33.2086C102.714 32.0257 103.053 30.9819 103.731 30.0772C104.433 29.1726 105.439 28.4652 106.748 27.9549C108.058 27.4214 109.625 27.1546 111.449 27.1546C112.735 27.1546 114.044 27.2938 115.377 27.5722C116.71 27.8505 117.821 28.2564 118.71 28.7899L116.886 32.6519C115.974 32.1184 115.05 31.7589 114.115 31.5733C113.203 31.3646 112.314 31.2602 111.449 31.2602C110.233 31.2602 109.344 31.4226 108.783 31.7473C108.221 32.072 107.941 32.4896 107.941 32.9999C107.941 33.4638 108.14 33.8117 108.537 34.0436C108.958 34.2756 109.508 34.4612 110.186 34.6003C110.864 34.7395 111.601 34.8671 112.396 34.9831C113.214 35.0758 114.033 35.2266 114.851 35.4354C115.67 35.6441 116.406 35.9457 117.061 36.34C117.739 36.7111 118.289 37.233 118.71 37.9057C119.131 38.5551 119.341 39.4134 119.341 40.4803C119.341 41.6401 118.99 42.6723 118.289 43.5769C117.587 44.4583 116.57 45.1542 115.237 45.6645C113.927 46.1748 112.326 46.4299 110.431 46.4299Z" fill="white"/>
<path d="M126.445 42.3244L126.586 35.7137L135.39 27.433H141.915L133.461 35.9573L130.62 38.2536L126.445 42.3244ZM121.92 46.1516V20.3352H127.392V46.1516H121.92ZM135.986 46.1516L129.602 38.2884L133.04 34.0784L142.616 46.1516H135.986Z" fill="white"/>
<path d="M144.28 46.1516V27.433H149.752V46.1516H144.28ZM147.016 24.8235C146.01 24.8235 145.192 24.5336 144.56 23.9537C143.929 23.3738 143.613 22.6547 143.613 21.7965C143.613 20.9383 143.929 20.2192 144.56 19.6394C145.192 19.0595 146.01 18.7695 147.016 18.7695C148.022 18.7695 148.84 19.0479 149.471 19.6046C150.103 20.1381 150.419 20.8339 150.419 21.6921C150.419 22.5968 150.103 23.3506 149.471 23.9537C148.863 24.5336 148.045 24.8235 147.016 24.8235Z" fill="white"/>
<path d="M154.7 46.1516V27.0155C154.7 24.9047 155.331 23.223 156.594 21.9705C157.857 20.6947 159.658 20.0569 161.996 20.0569C162.791 20.0569 163.551 20.1381 164.276 20.3004C165.025 20.4628 165.656 20.7179 166.17 21.0659L164.732 24.9975C164.428 24.7887 164.089 24.6263 163.715 24.5104C163.341 24.3944 162.943 24.3364 162.522 24.3364C161.727 24.3364 161.107 24.5684 160.663 25.0323C160.242 25.473 160.032 26.1456 160.032 27.0503V28.7899L160.172 31.121V46.1516H154.7ZM151.788 32.0257V27.8505H164.873V32.0257H151.788Z" fill="white"/>
<path d="M169.529 53.1798C168.547 53.1798 167.577 53.029 166.618 52.7275C165.659 52.4259 164.876 52.0084 164.268 51.4749L166.267 47.6129C166.688 47.984 167.167 48.274 167.705 48.4827C168.267 48.6915 168.816 48.7959 169.354 48.7959C170.126 48.7959 170.734 48.6103 171.178 48.2392C171.646 47.8913 172.067 47.2998 172.441 46.4647L173.423 44.1684L173.844 43.5769L180.614 27.433H185.876L177.352 47.2998C176.744 48.8075 176.042 49.9904 175.247 50.8487C174.475 51.7069 173.61 52.31 172.651 52.6579C171.716 53.0058 170.675 53.1798 169.529 53.1798ZM172.757 46.8823L164.338 27.433H169.985L176.51 43.0898L172.757 46.8823Z" fill="white"/>
<defs>
<clipPath id="clip0_31432_13851">
<rect width="44.9812" height="51.723" fill="white" transform="translate(15.9355 6.25684)"/>
</clipPath>
</defs>
</svg>
