<svg width="81" height="23" viewBox="0 0 81 23" fill="none" xmlns="http://www.w3.org/2000/svg">
<path d="M5.43766 18.0417V5.40674H0.407227V2.47044H14.1062V5.40674H9.07574V18.0417H5.43766Z" fill="#5534DA"/>
<path d="M22.1031 18.0417V15.706L21.8785 15.1944V11.0124C21.8785 10.2709 21.6464 9.69255 21.1823 9.27732C20.7332 8.86209 20.037 8.65447 19.0938 8.65447C18.45 8.65447 17.8137 8.75828 17.1849 8.96589C16.5711 9.15868 16.0471 9.42562 15.6129 9.7667L14.3553 7.34203C15.014 6.88231 15.8075 6.52639 16.7358 6.27429C17.664 6.02218 18.6072 5.89613 19.5654 5.89613C21.4069 5.89613 22.8367 6.32619 23.8547 7.18632C24.8728 8.04645 25.3818 9.38854 25.3818 11.2126V18.0417H22.1031ZM18.4201 18.2197C17.4769 18.2197 16.6684 18.064 15.9947 17.7525C15.321 17.4263 14.8044 16.9888 14.4451 16.4401C14.0858 15.8914 13.9062 15.276 13.9062 14.5938C13.9062 13.882 14.0783 13.2591 14.4227 12.7252C14.782 12.1914 15.3434 11.7761 16.107 11.4795C16.8705 11.1681 17.8661 11.0124 19.0938 11.0124H22.3052V13.0367H19.4756C18.6521 13.0367 18.0832 13.1701 17.7688 13.4371C17.4694 13.704 17.3197 14.0377 17.3197 14.4381C17.3197 14.883 17.4918 15.2389 17.8362 15.5058C18.1955 15.7579 18.6821 15.884 19.2959 15.884C19.8798 15.884 20.4038 15.7505 20.8679 15.4836C21.332 15.2018 21.6689 14.794 21.8785 14.2601L22.4175 15.8617C22.163 16.6329 21.6988 17.2187 21.0251 17.6191C20.3514 18.0195 19.483 18.2197 18.4201 18.2197Z" fill="#5534DA"/>
<path d="M32.1069 18.2197C31.0739 18.2197 30.0783 18.101 29.1201 17.8638C28.1769 17.6117 27.4283 17.3002 26.8743 16.9295L28.0421 14.4381C28.5961 14.7792 29.2473 15.0609 29.9959 15.2834C30.7595 15.491 31.508 15.5948 32.2416 15.5948C33.0501 15.5948 33.619 15.4984 33.9484 15.3056C34.2927 15.1128 34.4649 14.8459 34.4649 14.5048C34.4649 14.2231 34.3302 14.0154 34.0607 13.882C33.8062 13.7337 33.4618 13.6224 33.0276 13.5483C32.5935 13.4742 32.1144 13.4 31.5904 13.3259C31.0814 13.2517 30.5648 13.1553 30.0408 13.0367C29.5168 12.9032 29.0377 12.7104 28.6036 12.4583C28.1694 12.2062 27.8176 11.8651 27.5481 11.4351C27.2936 11.005 27.1663 10.4489 27.1663 9.7667C27.1663 9.01038 27.3834 8.34304 27.8176 7.76468C28.2667 7.18632 28.9105 6.73401 29.7489 6.40775C30.5873 6.06667 31.5904 5.89613 32.7582 5.89613C33.5816 5.89613 34.42 5.98511 35.2734 6.16306C36.1268 6.34102 36.8379 6.60054 37.4068 6.94163L36.239 9.41079C35.6552 9.0697 35.0638 8.83984 34.4649 8.7212C33.881 8.58773 33.3121 8.521 32.7582 8.521C31.9796 8.521 31.4107 8.62481 31.0514 8.83243C30.6921 9.04004 30.5124 9.30698 30.5124 9.63323C30.5124 9.92983 30.6397 10.1523 30.8942 10.3006C31.1637 10.4489 31.5155 10.5675 31.9497 10.6565C32.3839 10.7455 32.8555 10.827 33.3645 10.9012C33.8885 10.9605 34.4125 11.0569 34.9365 11.1904C35.4605 11.3238 35.9321 11.5166 36.3513 11.7687C36.7855 12.006 37.1373 12.3397 37.4068 12.7697C37.6763 13.185 37.8111 13.7337 37.8111 14.4158C37.8111 15.1573 37.5865 15.8173 37.1373 16.3956C36.6882 16.9592 36.0369 17.404 35.1835 17.7303C34.3451 18.0566 33.3196 18.2197 32.1069 18.2197Z" fill="#5534DA"/>
<path d="M42.3592 15.5948L42.449 11.3683L48.0858 6.07408H52.2628L46.8506 11.524L45.0316 12.9922L42.3592 15.5948ZM39.4622 18.0417V1.53617H42.9655V18.0417H39.4622ZM48.4676 18.0417L44.3803 13.0144L46.5811 10.3228L52.712 18.0417H48.4676Z" fill="#5534DA"/>
<path d="M53.7771 18.0417V6.07408H57.2804V18.0417H53.7771ZM55.5288 4.40573C54.885 4.40573 54.361 4.22036 53.9568 3.84962C53.5525 3.47887 53.3504 3.01915 53.3504 2.47044C53.3504 1.92174 53.5525 1.46202 53.9568 1.09127C54.361 0.720529 54.885 0.535156 55.5288 0.535156C56.1726 0.535156 56.6966 0.713114 57.1008 1.06903C57.505 1.41012 57.7071 1.85501 57.7071 2.40371C57.7071 2.98207 57.505 3.46404 57.1008 3.84962C56.7115 4.22036 56.1875 4.40573 55.5288 4.40573Z" fill="#5534DA"/>
<path d="M60.4481 18.0417V5.80715C60.4481 4.45764 60.8524 3.38248 61.6608 2.58167C62.4693 1.76603 63.6221 1.35821 65.1193 1.35821C65.6283 1.35821 66.1149 1.41011 66.579 1.51392C67.0581 1.61773 67.4623 1.78086 67.7917 2.00331L66.8709 4.51696C66.6763 4.38349 66.4592 4.27968 66.2197 4.20553C65.9801 4.13138 65.7256 4.09431 65.4561 4.09431C64.9471 4.09431 64.5503 4.2426 64.2659 4.5392C63.9964 4.82097 63.8616 5.25103 63.8616 5.82939V6.94163L63.9515 8.43202V18.0417H60.4481ZM58.5842 9.01038V6.34102H66.9608V9.01038H58.5842Z" fill="#5534DA"/>
<path d="M69.9421 22.5352C69.3133 22.5352 68.692 22.4388 68.0782 22.246C67.4643 22.0532 66.9628 21.7863 66.5735 21.4452L67.8536 18.976C68.1231 19.2133 68.43 19.3987 68.7743 19.5321C69.1337 19.6656 69.4855 19.7323 69.8298 19.7323C70.3239 19.7323 70.7132 19.6137 70.9976 19.3764C71.297 19.154 71.5665 18.7758 71.8061 18.2419L72.4349 16.7738L72.7044 16.3956L77.0386 6.07408H80.4072L74.9501 18.7758C74.5608 19.7397 74.1117 20.4961 73.6027 21.0448C73.1086 21.5935 72.5547 21.979 71.9408 22.2015C71.342 22.4239 70.6757 22.5352 69.9421 22.5352ZM72.0082 18.5089L66.6184 6.07408H70.2341L74.4111 16.0842L72.0082 18.5089Z" fill="#5534DA"/>
</svg>
