<svg width="16" height="17" viewBox="0 0 16 17" fill="none" xmlns="http://www.w3.org/2000/svg">
<path d="M2.42316 16.9177C2.00222 16.9177 1.64591 16.7719 1.35425 16.4802C1.06258 16.1886 0.916748 15.8322 0.916748 15.4113V4.25751C0.916748 3.83657 1.06258 3.48026 1.35425 3.18859C1.64591 2.89693 2.00222 2.75109 2.42316 2.75109H3.57702V1.62928C3.57702 1.4466 3.63819 1.29409 3.76052 1.17176C3.88284 1.04944 4.03535 0.988281 4.21804 0.988281C4.40072 0.988281 4.55323 1.04944 4.67556 1.17176C4.79788 1.29409 4.85904 1.4466 4.85904 1.62928V2.75109H11.1731V1.61326C11.1731 1.43591 11.2329 1.28741 11.3526 1.16776C11.4723 1.04811 11.6208 0.988281 11.7981 0.988281C11.9755 0.988281 12.1239 1.04811 12.2436 1.16776C12.3633 1.28741 12.4231 1.43591 12.4231 1.61326V2.75109H13.577C13.9979 2.75109 14.3542 2.89693 14.6459 3.18859C14.9375 3.48026 15.0834 3.83657 15.0834 4.25751V15.4113C15.0834 15.8322 14.9375 16.1886 14.6459 16.4802C14.3542 16.7719 13.9979 16.9177 13.577 16.9177H2.42316ZM2.42316 15.6677H13.577C13.6411 15.6677 13.6998 15.641 13.7533 15.5876C13.8067 15.5342 13.8334 15.4754 13.8334 15.4113V7.59084H2.16673V15.4113C2.16673 15.4754 2.19344 15.5342 2.24685 15.5876C2.30028 15.641 2.35905 15.6677 2.42316 15.6677ZM2.16673 6.34087H13.8334V4.25751C13.8334 4.1934 13.8067 4.13463 13.7533 4.0812C13.6998 4.02778 13.6411 4.00107 13.577 4.00107H2.42316C2.35905 4.00107 2.30028 4.02778 2.24685 4.0812C2.19344 4.13463 2.16673 4.1934 2.16673 4.25751V6.34087Z" fill="#787486"/>
</svg>
