<svg width="10" height="5" viewBox="0 0 10 5" fill="none" xmlns="http://www.w3.org/2000/svg">
<path d="M4.48015 4.35449L1.06643 0.940798C1.01935 0.893709 0.982259 0.84113 0.955176 0.783064C0.928092 0.724979 0.914551 0.66275 0.914551 0.596378C0.914551 0.463634 0.959437 0.348305 1.04921 0.250389C1.13896 0.152474 1.25727 0.103516 1.40414 0.103516H8.59574C8.7426 0.103516 8.86091 0.152944 8.95066 0.251798C9.04043 0.35067 9.08532 0.466009 9.08532 0.597815C9.08532 0.630784 9.03462 0.745184 8.93322 0.941014L5.51972 4.35452C5.44125 4.43299 5.36014 4.49028 5.27638 4.52639C5.1926 4.5625 5.10045 4.58055 4.99994 4.58055C4.89942 4.58055 4.80727 4.5625 4.7235 4.52639C4.63974 4.49028 4.55862 4.43298 4.48015 4.35449Z" fill="#333236"/>
</svg>
