<svg width="22" height="21" viewBox="0 0 22 21" fill="none" xmlns="http://www.w3.org/2000/svg">
<path d="M18.3457 0.0664062H3.46855C2.69562 0.0664062 1.95434 0.373451 1.4078 0.919996C0.861246 1.46655 0.554199 2.20782 0.554199 2.98076V17.8579C0.554199 18.6309 0.861246 19.3722 1.4078 19.9187C1.95434 20.4652 2.69562 20.7723 3.46855 20.7723H10.2394V13.2146H7.67961V10.2666H10.2394V8.09511C10.2394 6.86441 10.5797 5.90806 11.2604 5.22864C11.9411 4.54794 12.8638 4.20629 14.0298 4.20629C15.1971 4.20629 15.9529 4.25159 16.2984 4.337V6.96147H14.7429C14.1812 6.96147 13.7982 7.08053 13.5924 7.31864C13.3879 7.55547 13.2857 7.91264 13.2857 8.38759V10.2666H16.2013L15.8131 13.2146H13.2857V20.7723H18.3457C19.1187 20.7723 19.8599 20.4652 20.4065 19.9187C20.9531 19.3722 21.2601 18.6309 21.2601 17.8579V2.98076C21.2601 2.20782 20.9531 1.46655 20.4065 0.919996C19.8599 0.373451 19.1187 0.0664062 18.3457 0.0664062Z" fill="#D9D9D9"/>
</svg>
