<svg width="16" height="16" viewBox="0 0 16 16" fill="none" xmlns="http://www.w3.org/2000/svg">
<path d="M6.7339 15.9173C6.54692 15.9173 6.38506 15.8545 6.24831 15.729C6.11156 15.6034 6.0293 15.4472 6.00152 15.2602L5.75954 13.3788C5.53625 13.304 5.30735 13.1993 5.07283 13.0647C4.83832 12.9301 4.62865 12.7859 4.44381 12.632L2.70344 13.366C2.52502 13.444 2.34794 13.453 2.17219 13.3932C1.99644 13.3334 1.85835 13.2212 1.75792 13.0567L0.504749 10.874C0.409652 10.7095 0.38027 10.5338 0.416603 10.3468C0.452923 10.1598 0.546402 10.0092 0.697041 9.89488L2.20346 8.75544C2.18422 8.63151 2.1706 8.50705 2.16258 8.38205C2.15457 8.25705 2.15056 8.13258 2.15056 8.00865C2.15056 7.89006 2.15457 7.76959 2.16258 7.64726C2.1706 7.52492 2.18422 7.39111 2.20346 7.24582L0.697041 6.10638C0.546402 5.99208 0.451589 5.84144 0.412603 5.65446C0.373603 5.46751 0.404319 5.29176 0.504749 5.12724L1.75792 2.96061C1.85835 2.79608 1.9951 2.6839 2.16819 2.62407C2.34126 2.56423 2.517 2.57332 2.69542 2.65132L4.43579 3.37728C4.63665 3.21808 4.85113 3.07251 5.07923 2.94057C5.30734 2.80861 5.53144 2.70257 5.75152 2.62244L6.00152 0.741047C6.0293 0.554075 6.11156 0.397825 6.24831 0.272297C6.38506 0.146755 6.54692 0.0839844 6.7339 0.0839844H9.25789C9.44485 0.0839844 9.60804 0.146755 9.74746 0.272297C9.88689 0.397825 9.97049 0.554075 9.99827 0.741047L10.2402 2.63046C10.4902 2.72127 10.7165 2.8273 10.919 2.94857C11.1214 3.06983 11.3257 3.21273 11.5319 3.37728L13.3044 2.65132C13.4828 2.57332 13.6585 2.5629 13.8316 2.62007C14.0047 2.67722 14.1414 2.78806 14.2419 2.95259L15.495 5.12724C15.5955 5.29176 15.6262 5.46751 15.5872 5.65446C15.5482 5.84144 15.4534 5.99208 15.3027 6.10638L13.7643 7.26984C13.7942 7.40446 13.8105 7.53027 13.8132 7.64726C13.8158 7.76424 13.8172 7.88203 13.8172 8.00063C13.8172 8.11388 13.8145 8.229 13.8092 8.34599C13.8038 8.46297 13.7846 8.59679 13.7515 8.74744L15.2739 9.89488C15.4245 10.0092 15.5194 10.1598 15.5584 10.3468C15.5974 10.5338 15.5666 10.7095 15.4662 10.874L14.213 13.0439C14.1126 13.2084 13.9724 13.3214 13.7924 13.3828C13.6123 13.4442 13.4331 13.436 13.2547 13.358L11.5319 12.624C11.3257 12.7885 11.1153 12.9341 10.9005 13.0607C10.6858 13.1873 10.4657 13.2907 10.2402 13.3708L9.99827 15.2602C9.97049 15.4472 9.88689 15.6034 9.74746 15.729C9.60804 15.8545 9.44485 15.9173 9.25789 15.9173H6.7339ZM7.16656 14.6673H8.80437L9.10406 12.4349C9.52927 12.3238 9.91789 12.166 10.2699 11.9614C10.6219 11.7568 10.9614 11.4937 11.2884 11.1721L13.3589 12.0423L14.1794 10.6256L12.3717 9.26344C12.4411 9.04764 12.4884 8.8361 12.5135 8.62884C12.5386 8.42158 12.5512 8.21217 12.5512 8.00063C12.5512 7.78376 12.5386 7.57435 12.5135 7.37242C12.4884 7.17051 12.4411 6.96431 12.3717 6.75384L14.1954 5.37563L13.3749 3.95896L11.2803 4.84199C11.0015 4.5439 10.6674 4.28055 10.2779 4.05192C9.88851 3.82328 9.49454 3.66142 9.09604 3.56634L8.83323 1.33396H7.17937L6.90375 3.55832C6.47853 3.65875 6.0859 3.8126 5.72585 4.01986C5.36581 4.22712 5.02233 4.49422 4.69542 4.82115L2.6249 3.95896L1.80437 5.37563L3.60406 6.71699C3.53462 6.91462 3.48601 7.12028 3.45823 7.33396C3.43045 7.54765 3.41656 7.77254 3.41656 8.00865C3.41656 8.22553 3.43045 8.43813 3.45823 8.64647C3.48601 8.8548 3.53194 9.06046 3.59604 9.26344L1.80437 10.6256L2.6249 12.0423L4.6874 11.1673C5.00363 11.4921 5.34177 11.7581 5.70181 11.9654C6.06185 12.1726 6.45983 12.3318 6.89573 12.4429L7.16656 14.6673ZM8.0095 10.5006C8.70287 10.5006 9.29288 10.2573 9.77952 9.77065C10.2662 9.284 10.5095 8.69399 10.5095 8.00063C10.5095 7.30727 10.2662 6.71726 9.77952 6.23061C9.29288 5.74397 8.70287 5.50065 8.0095 5.50065C7.3076 5.50065 6.71546 5.74397 6.23308 6.23061C5.75072 6.71726 5.50954 7.30727 5.50954 8.00063C5.50954 8.69399 5.75072 9.284 6.23308 9.77065C6.71546 10.2573 7.3076 10.5006 8.0095 10.5006Z" fill="#787486"/>
</svg>
